<?xml version="1.0" standalone="no"?>
<!DOCTYPE svg PUBLIC "-//W3C//DTD SVG 1.1//EN" "http://www.w3.org/Graphics/SVG/1.1/DTD/svg11.dtd" >
<svg>
<metadata>
Created by FontForge 20090622 at Thu Nov 12 00:56:08 2015
 By deploy user
Copyright (c) 2014 by Typetype. All rights reserved.
</metadata>
<defs>
<font id="ProstoSans-Bold" horiz-adv-x="634" >
  <font-face 
    font-family="Prosto Sans"
    font-weight="700"
    font-stretch="normal"
    units-per-em="1000"
    panose-1="2 0 8 3 0 0 0 2 0 3"
    ascent="800"
    descent="-200"
    x-height="700"
    cap-height="700"
    bbox="-27 -290 1218 965"
    underline-thickness="50"
    underline-position="-50"
    unicode-range="U+0020-U+2122"
  />
<missing-glyph horiz-adv-x="290" 
 />
    <glyph glyph-name=".notdef" horiz-adv-x="290" 
 />
    <glyph glyph-name=".null" horiz-adv-x="0" 
 />
    <glyph glyph-name="nonmarkingreturn" horiz-adv-x="333" 
 />
    <glyph glyph-name="space" unicode=" " horiz-adv-x="290" 
 />
    <glyph glyph-name="exclam" unicode="!" horiz-adv-x="296" 
d="M218 700v-320l-20 -170h-100l-20 170v320h140zM68 65q0 30 23.5 52.5t56.5 22.5t56.5 -22.5t23.5 -52.5t-23.5 -52.5t-56.5 -22.5t-56.5 22.5t-23.5 52.5z" />
    <glyph glyph-name="quotedbl" unicode="&#x22;" horiz-adv-x="408" 
d="M149 460h-80l-15 110v130h110v-130zM339 460h-80l-15 110v130h110v-130z" />
    <glyph glyph-name="numbersign" unicode="#" horiz-adv-x="774" 
d="M227 0h-130l40 160h-110v110h135l40 160h-125v110h150l40 160h130l-40 -160h150l40 160h130l-40 -160h110v-110h-135l-40 -160h125v-110h-150l-40 -160h-130l40 160h-150zM332 430l-40 -160h150l40 160h-150z" />
    <glyph glyph-name="dollar" unicode="$" 
d="M377 -100h-120v82q-62 6 -118 29.5t-81 43.5l-26 20l60 95q9 -8 25.5 -20.5t67.5 -33.5t102 -21q81 0 125.5 32.5t44.5 77.5q0 25 -22 43t-56.5 29.5t-76.5 23t-84.5 28t-77 39t-56.5 61.5t-22 91q0 65 52.5 119.5t142.5 72.5v88h120v-82q56 -6 108.5 -26.5t76.5 -38.5
l25 -18l-55 -95q-9 7 -25 17t-64.5 26.5t-95.5 16.5q-66 0 -103 -25t-37 -55q0 -32 29.5 -55t73 -34.5t95 -29t95 -37t73 -61t29.5 -98.5q0 -80 -59 -141t-166 -78v-86z" />
    <glyph glyph-name="percent" unicode="%" horiz-adv-x="856" 
d="M583 700h145l-460 -700h-145zM128 550q0 -37 19.5 -58.5t50.5 -21.5t50.5 21.5t19.5 58.5t-19.5 58.5t-50.5 21.5t-50.5 -21.5t-19.5 -58.5zM378 550q0 -72 -51 -121t-129 -49t-129 49t-51 121t51 121t129 49t129 -49t51 -121zM588 150q0 -37 19.5 -58.5t50.5 -21.5
t50.5 21.5t19.5 58.5t-19.5 58.5t-50.5 21.5t-50.5 -21.5t-19.5 -58.5zM838 150q0 -72 -51 -121t-129 -49t-129 49t-51 121t51 121t129 49t129 -49t51 -121z" />
    <glyph glyph-name="ampersand" unicode="&#x26;" horiz-adv-x="745" 
d="M692 370q0 -60 -16 -115t-32 -80l-17 -25l100 -90l-85 -90l-105 95q-3 -3 -10 -9t-29.5 -20.5t-48 -26t-65.5 -20.5t-82 -9q-129 0 -202 58t-73 142q0 39 16 73t38.5 54.5t45.5 35.5t39 21l16 6v5q-4 2 -10.5 6.5t-22.5 19.5t-28.5 31.5t-23 43t-10.5 54.5q0 78 64.5 134
t165.5 56q102 0 166 -56t64 -134q0 -31 -14.5 -59.5t-35 -48t-41 -34t-34.5 -21.5l-15 -7v-5l130 -120q40 55 40 135h115zM307 90q38 0 73 14t51 28l16 13l-175 160l-11 -5.5t-25.5 -15t-32 -24.5t-25 -33.5t-11.5 -41.5q0 -37 38 -66t102 -29zM222 530q0 -24 20.5 -50.5
t41.5 -40.5l20 -14q4 2 11.5 5t26 13.5t33 21.5t26 29t11.5 36q0 35 -25.5 57.5t-69.5 22.5t-69.5 -22.5t-25.5 -57.5z" />
    <glyph glyph-name="quotesingle" unicode="'" horiz-adv-x="218" 
d="M149 460h-80l-15 110v130h110v-130z" />
    <glyph glyph-name="parenleft" unicode="(" horiz-adv-x="432" 
d="M328 -290q-11 9 -29 25t-63.5 70.5t-80.5 114t-63.5 152.5t-28.5 188q0 69 14.5 137t38 121t52 101t56.5 82t51.5 59t38.5 38l14 12l90 -80q-9 -8 -23.5 -23t-51.5 -64t-65.5 -101t-51.5 -129t-23 -153t22 -152t53.5 -131t63.5 -99t54 -66l22 -22z" />
    <glyph glyph-name="parenright" unicode=")" horiz-adv-x="432" 
d="M104 -290l-90 80q9 8 23.5 23t51.5 64t65.5 101t51.5 129t23 153t-22 152t-53.5 131t-63.5 99t-54 66l-22 22l90 80q11 -9 29 -25t63.5 -70.5t80.5 -114t63.5 -152.5t28.5 -188q0 -69 -14.5 -137t-38 -121t-52 -101t-56.5 -82t-51.5 -59t-38.5 -38z" />
    <glyph glyph-name="asterisk" unicode="*" horiz-adv-x="494" 
d="M197 560v140h100v-140l135 45l30 -95l-135 -45l85 -115l-80 -55l-85 110l-85 -111l-80 56l85 115l-135 45l30 95z" />
    <glyph glyph-name="plus" unicode="+" horiz-adv-x="582" 
d="M351 595v-190h190v-120h-190v-190h-120v190h-190v120h190v190h120z" />
    <glyph glyph-name="comma" unicode="," horiz-adv-x="242" 
d="M111 -15v5q-30 4 -50 24.5t-20 50.5t23.5 52.5t56.5 22.5q34 0 57 -25t23 -65q0 -35 -12.5 -66.5t-30 -51.5t-35 -34.5t-29.5 -21.5l-13 -6l-25 45q40 35 55 70z" />
    <glyph glyph-name="hyphen" unicode="-" horiz-adv-x="547" 
d="M41 405h465v-120h-465v120z" />
    <glyph glyph-name="period" unicode="." horiz-adv-x="242" 
d="M41 65q0 30 23.5 52.5t56.5 22.5t56.5 -22.5t23.5 -52.5t-23.5 -52.5t-56.5 -22.5t-56.5 22.5t-23.5 52.5z" />
    <glyph glyph-name="slash" unicode="/" horiz-adv-x="566" 
d="M403 750h145l-385 -800h-145z" />
    <glyph glyph-name="zero" unicode="0" horiz-adv-x="730" 
d="M185 350q0 -118 52 -184t128 -66t128 66t52 184t-52 184t-128 66t-128 -66t-52 -184zM685 350q0 -169 -91 -269.5t-229 -100.5t-229 100.5t-91 269.5t91 269.5t229 100.5t229 -100.5t91 -269.5z" />
    <glyph glyph-name="one" unicode="1" horiz-adv-x="444" 
d="M238 700h120v-700h-140v530h-5l-125 -100l-70 90z" />
    <glyph glyph-name="two" unicode="2" horiz-adv-x="632" 
d="M282 720q137 0 216 -65t79 -160q0 -76 -39 -129.5t-116 -110.5l-180 -135v-5h340v-115h-550v115l300 225q51 38 75.5 71.5t24.5 78.5q0 48 -39 79t-111 31q-49 0 -96.5 -15t-70.5 -30l-23 -15l-60 95l12 9t34 20.5t53 26t68.5 20.5t82.5 9z" />
    <glyph glyph-name="three" unicode="3" horiz-adv-x="638" 
d="M53 700h515v-115l-220 -175v-5q106 0 173 -60t67 -145q0 -95 -80 -157.5t-230 -62.5q-45 0 -88 10t-72.5 23.5t-53 27.5t-34.5 24l-12 10l60 95q10 -8 27.5 -19.5t70 -31t102.5 -19.5q77 0 121 31t44 69q0 45 -41 75t-119 30h-115v105l215 170v5h-330v115z" />
    <glyph glyph-name="four" unicode="4" horiz-adv-x="684" 
d="M27 140v120l395 440h140v-440h95v-120h-95v-140h-140v140h-395zM192 260h230v260h-5l-225 -255v-5z" />
    <glyph glyph-name="five" unicode="5" horiz-adv-x="661" 
d="M81 700h495v-115h-355v-160q50 25 120 25q121 0 195.5 -67.5t74.5 -167.5t-81 -167.5t-224 -67.5q-45 0 -88.5 10t-74 23.5t-54.5 27.5t-36 24l-12 10l60 95q9 -8 26 -19.5t68 -31t101 -19.5q86 0 128 31.5t42 83.5q0 51 -39 83t-111 32q-39 0 -77.5 -11t-58.5 -23
l-19 -11l-80 60v355z" />
    <glyph glyph-name="six" unicode="6" horiz-adv-x="671" 
d="M345 100q62 0 101 35t39 85t-39 85t-101 35q-40 0 -78.5 -11t-57.5 -23l-19 -11q0 -87 46 -141t109 -54zM375 720q58 0 114 -17.5t83 -34.5l28 -18l-60 -95q-70 45 -155 45q-82 0 -137 -53.5t-63 -136.5h5q7 6 20.5 14t54 22t80.5 14q128 0 206.5 -69.5t78.5 -170.5
t-78.5 -170.5t-206.5 -69.5q-131 0 -215.5 96t-84.5 264q0 176 92 278t238 102z" />
    <glyph glyph-name="seven" unicode="7" horiz-adv-x="591" 
d="M293 0h-155l270 578v7h-385v115h545v-115z" />
    <glyph glyph-name="eight" unicode="8" horiz-adv-x="672" 
d="M336 720q122 0 193.5 -59.5t71.5 -140.5q0 -33 -12 -60.5t-28.5 -43.5t-33.5 -27t-29 -15l-12 -4v-5q6 -1 16 -4t36 -16t46 -30.5t36 -50.5t16 -74q0 -85 -80.5 -147.5t-219.5 -62.5t-219.5 62.5t-80.5 147.5q0 41 15.5 74t37.5 51t44 30t37 16l16 4v5q-5 1 -12.5 4
t-27.5 15t-35 27t-27.5 43t-12.5 61q0 81 71.5 140.5t193.5 59.5zM456 510q0 36 -33 63t-87 27t-87 -27t-33 -63t33 -63t87 -27t87 27t33 63zM336 300q-74 0 -114.5 -29.5t-40.5 -70.5t40.5 -70.5t114.5 -29.5t114.5 29.5t40.5 70.5t-40.5 70.5t-114.5 29.5z" />
    <glyph glyph-name="nine" unicode="9" horiz-adv-x="671" 
d="M326 600q-62 0 -101 -35t-39 -85t39 -85t101 -35q40 0 79 11t57 23l19 11q0 87 -46 141t-109 54zM296 -20q-58 0 -114 17.5t-84 34.5l-27 18l60 95q70 -45 155 -45q82 0 137 53.5t63 136.5h-5q-7 -6 -20.5 -14t-54 -22t-80.5 -14q-128 0 -206.5 69.5t-78.5 170.5
t78.5 170.5t206.5 69.5q131 0 215.5 -96t84.5 -264q0 -176 -92 -278t-238 -102z" />
    <glyph glyph-name="colon" unicode=":" horiz-adv-x="250" 
d="M45 65q0 30 23.5 52.5t56.5 22.5t56.5 -22.5t23.5 -52.5t-23.5 -52.5t-56.5 -22.5t-56.5 22.5t-23.5 52.5zM45 445q0 30 23.5 52.5t56.5 22.5t56.5 -22.5t23.5 -52.5t-23.5 -52.5t-56.5 -22.5t-56.5 22.5t-23.5 52.5z" />
    <glyph glyph-name="semicolon" unicode=";" horiz-adv-x="250" 
d="M115 -15v5q-30 4 -50 24.5t-20 50.5t23.5 52.5t56.5 22.5q34 0 57 -25t23 -65q0 -35 -12.5 -66.5t-30 -51.5t-35 -34.5t-29.5 -21.5l-13 -6l-25 45q40 35 55 70zM45 445q0 30 23.5 52.5t56.5 22.5t56.5 -22.5t23.5 -52.5t-23.5 -52.5t-56.5 -22.5t-56.5 22.5t-23.5 52.5z
" />
    <glyph glyph-name="less" unicode="&#x3c;" horiz-adv-x="568" 
d="M194 250l320 -130v-120l-460 190v125l460 190v-120l-320 -130v-5z" />
    <glyph glyph-name="equal" unicode="=" horiz-adv-x="560" 
d="M50 505h460v-120h-460v120zM50 280h460v-120h-460v120z" />
    <glyph glyph-name="greater" unicode="&#x3e;" horiz-adv-x="568" 
d="M54 120l320 130v5l-320 130v120l460 -190v-125l-460 -190v120z" />
    <glyph glyph-name="question" unicode="?" horiz-adv-x="584" 
d="M258 600q-43 0 -88 -15t-68 -30l-24 -15l-60 95l11.5 9t32.5 20.5t51.5 26t66 20.5t78.5 9q133 0 211.5 -64.5t78.5 -155.5q0 -46 -22.5 -81.5t-55 -57.5t-65 -40.5t-55 -40t-22.5 -45.5v-25h-120v25q0 40 20 73t49 55l57.5 42t48.5 44t20 51q0 42 -40.5 71t-104.5 29z
M188 65q0 30 23.5 52.5t56.5 22.5t56.5 -22.5t23.5 -52.5t-23.5 -52.5t-56.5 -22.5t-56.5 22.5t-23.5 52.5z" />
    <glyph glyph-name="at" unicode="@" horiz-adv-x="1001" 
d="M700 470v-250q6 1 15.5 4.5t33.5 16t42.5 29.5t33.5 47.5t15 67.5q0 96 -92.5 170.5t-242.5 74.5q-138 0 -234 -97t-96 -233q0 -139 96.5 -234.5t238.5 -95.5q72 0 138.5 16t96.5 32l30 17l45 -95l-14.5 -8.5t-41 -19.5t-65 -24.5t-85.5 -19t-104 -8.5q-130 0 -237 59.5
t-167.5 160.5t-60.5 220q0 89 35.5 170t96 140.5t146.5 94.5t182 35q209 0 334.5 -104.5t125.5 -250.5q0 -125 -108 -205t-322 -80q-99 0 -162 58t-63 142t63 142t162 58q42 0 83 -7.5t62 -14.5zM535 200l50 5v185q-20 10 -50 10q-48 0 -79 -28t-31 -72t30.5 -72t79.5 -28z
" />
    <glyph glyph-name="A" unicode="A" horiz-adv-x="773" 
d="M474 700l290 -700h-150l-55 140h-345l-55 -140h-150l290 700h175zM384 550l-120 -290h245l-120 290h-5z" />
    <glyph glyph-name="B" unicode="B" horiz-adv-x="738" 
d="M81 0v700h310q133 0 199 -51.5t66 -138.5q0 -49 -29 -83t-57 -44l-29 -10v-5q7 -1 18 -4t39.5 -15t50 -29t39.5 -49t18 -71q0 -84 -73 -142t-203 -58h-349zM431 300h-210v-185h210q64 0 97 25t33 65q0 43 -32.5 69t-97.5 26zM391 415q57 0 88.5 24.5t31.5 60.5
t-31.5 60.5t-88.5 24.5h-170v-170h170z" />
    <glyph glyph-name="C" unicode="C" horiz-adv-x="698" 
d="M426 720q64 0 123 -17.5t85 -34.5l27 -18l-60 -95q-8 5 -22.5 12.5t-58 20t-84.5 12.5q-112 0 -181 -69t-69 -181t69 -181t181 -69q44 0 88 14t66 28l21 13l60 -95l-11 -8.5t-31.5 -19.5t-51.5 -24.5t-68 -19t-83 -8.5q-171 0 -278 104t-107 266t107 266t278 104z" />
    <glyph glyph-name="D" unicode="D" horiz-adv-x="767" 
d="M81 700h270q167 0 271 -99t104 -251q0 -155 -103.5 -252.5t-271.5 -97.5h-270v700zM351 585h-130v-470h130q102 0 166 65t64 170t-64 170t-166 65z" />
    <glyph glyph-name="E" unicode="E" horiz-adv-x="678" 
d="M81 0v700h560v-115h-420v-180h290v-115h-290v-175h430v-115h-570z" />
    <glyph glyph-name="F" unicode="F" horiz-adv-x="659" 
d="M81 0v700h560v-115h-420v-211h290v-114h-290v-260h-140z" />
    <glyph glyph-name="G" unicode="G" horiz-adv-x="750" 
d="M421 720q64 0 123 -17.5t86 -34.5l26 -18l-60 -95q-8 5 -22.5 12.5t-58 20t-84.5 12.5q-113 0 -181.5 -69t-68.5 -181t68.5 -181t181.5 -69q31 0 61 6t44 12l15 7v165h-145v115h285v-338q-4 -4 -12.5 -9.5t-36 -20.5t-57 -26.5t-74.5 -21t-90 -9.5q-168 0 -274 104
t-106 266t106 266t274 104z" />
    <glyph glyph-name="H" unicode="H" horiz-adv-x="802" 
d="M581 700h140v-700h-140v290h-360v-290h-140v700h140v-295h360v295z" />
    <glyph glyph-name="I" unicode="I" horiz-adv-x="302" 
d="M221 700v-700h-140v700h140z" />
    <glyph glyph-name="J" unicode="J" horiz-adv-x="551" 
d="M99 700h375v-445q0 -124 -76.5 -199.5t-203.5 -75.5q-49 0 -95 15t-68 30l-22 15l55 100q50 -40 120 -40q64 0 107 44t43 111v330h-235v115z" />
    <glyph glyph-name="K" unicode="K" horiz-adv-x="731" 
d="M711 700l-275 -295l295 -405h-160l-225 310l-125 -130v-180h-140v700h140v-330h5l315 330h170z" />
    <glyph glyph-name="L" unicode="L" 
d="M81 0v700h140v-585h395v-115h-535z" />
    <glyph glyph-name="M" unicode="M" horiz-adv-x="993" 
d="M559 100h-125l-175 375h-5l-55 -475h-145l85 700h155l200 -435h5l200 435h155l85 -700h-145l-55 475h-5z" />
    <glyph glyph-name="N" unicode="N" horiz-adv-x="802" 
d="M576 220h5v480h140v-700h-150l-345 480h-5v-480h-140v700h150z" />
    <glyph glyph-name="O" unicode="O" horiz-adv-x="832" 
d="M41 350q0 162 105 266t270 104t270 -104t105 -266t-105 -266t-270 -104t-270 104t-105 266zM646 350q0 111 -65.5 180.5t-164.5 69.5t-164.5 -69.5t-65.5 -180.5t65.5 -180.5t164.5 -69.5t164.5 69.5t65.5 180.5z" />
    <glyph glyph-name="P" unicode="P" horiz-adv-x="733" 
d="M81 700h320q142 0 221 -67.5t79 -172.5t-79 -172.5t-221 -67.5h-180v-220h-140v700zM401 585h-180v-250h180q69 0 112 37t43 88t-43 88t-112 37z" />
    <glyph glyph-name="Q" unicode="Q" horiz-adv-x="830" 
d="M785 350q0 -52 -13 -100t-31.5 -79t-36.5 -55t-31 -35l-13 -11l115 -170h-150l-70 105q-60 -25 -140 -25q-161 0 -265.5 104.5t-104.5 265.5t104.5 265.5t265.5 104.5t265.5 -104.5t104.5 -265.5zM185 350q0 -111 65.5 -180.5t164.5 -69.5q18 0 35.5 2.5t25.5 5.5l9 2
l-80 120h150l35 -50q6 7 15 20t24.5 57t15.5 93q0 111 -65.5 180.5t-164.5 69.5t-164.5 -69.5t-65.5 -180.5z" />
    <glyph glyph-name="R" unicode="R" horiz-adv-x="760" 
d="M81 700h320q138 0 214 -64.5t76 -165.5q0 -42 -13.5 -78t-32.5 -57.5t-38 -37t-33 -21.5l-13 -6v-5l185 -265h-165l-165 240h-195v-240h-140v700zM546 470q0 51 -38 83t-107 32h-180v-230h180q67 0 106 35t39 80z" />
    <glyph glyph-name="S" unicode="S" 
d="M337 720q42 0 83 -9t70 -21t52 -24.5t34 -21.5l11 -9l-55 -95q-9 7 -25 17t-64.5 26.5t-95.5 16.5q-66 0 -103 -25t-37 -55q0 -32 29.5 -55t73 -34.5t95 -29t95 -37t73 -61t29.5 -98.5q0 -95 -80.5 -160t-224.5 -65q-45 0 -89 10t-74.5 23.5t-54.5 27.5t-35 24l-12 10
l60 95q9 -8 25.5 -20.5t67.5 -33.5t102 -21q81 0 125.5 32.5t44.5 77.5q0 25 -22 43t-56.5 29.5t-76.5 23t-84.5 28t-77 39t-56.5 61.5t-22 91q0 80 75 140t200 60z" />
    <glyph glyph-name="T" unicode="T" horiz-adv-x="656" 
d="M18 700h620v-115h-240v-585h-140v585h-240v115z" />
    <glyph glyph-name="U" unicode="U" horiz-adv-x="794" 
d="M397 -20q-145 0 -232.5 83.5t-87.5 216.5v420h140v-420q0 -82 48.5 -131t131.5 -49t131.5 49t48.5 131v420h140v-420q0 -133 -87.5 -216.5t-232.5 -83.5z" />
    <glyph glyph-name="V" unicode="V" horiz-adv-x="743" 
d="M284 0l-275 700h155l205 -550h5l205 550h155l-275 -700h-175z" />
    <glyph glyph-name="W" unicode="W" horiz-adv-x="1091" 
d="M548 520h-5l-145 -520h-185l-195 700h150l145 -525h5l143 525h169l143 -525h5l145 525h150l-195 -700h-185z" />
    <glyph glyph-name="X" unicode="X" horiz-adv-x="735" 
d="M365 260l-195 -260h-170l265 360l-235 340h170l165 -240h5l165 240h170l-235 -340l265 -360h-170l-195 260h-5z" />
    <glyph glyph-name="Y" unicode="Y" horiz-adv-x="710" 
d="M360 360l200 340h150l-285 -480v-220h-140v220l-285 480h150l200 -340h10z" />
    <glyph glyph-name="Z" unicode="Z" horiz-adv-x="664" 
d="M42 585v115h585v-115l-410 -465v-5h415v-115h-600v115l410 465v5h-400z" />
    <glyph glyph-name="bracketleft" unicode="[" horiz-adv-x="399" 
d="M381 790v-120h-160v-820h160v-120h-300v1060h300z" />
    <glyph glyph-name="backslash" unicode="\" horiz-adv-x="566" 
d="M18 750h145l385 -800h-145z" />
    <glyph glyph-name="bracketright" unicode="]" horiz-adv-x="399" 
d="M18 672v118h295v-1060h-295v118h155v824h-155zM18 670v120h300v-1060h-300v120h160v820h-160z" />
    <glyph glyph-name="asciicircum" unicode="^" horiz-adv-x="531" 
d="M23 380l180 320h125l180 -320h-135l-105 195h-5l-105 -195h-135z" />
    <glyph glyph-name="underscore" unicode="_" horiz-adv-x="491" 
d="M473 -60v-115h-455v115h455z" />
    <glyph glyph-name="grave" unicode="`" horiz-adv-x="297" 
d="M36 700h150l75 -185h-105z" />
    <glyph glyph-name="a" unicode="a" horiz-adv-x="773" 
d="M474 700l290 -700h-150l-55 140h-345l-55 -140h-150l290 700h175zM384 550l-120 -290h245l-120 290h-5z" />
    <glyph glyph-name="b" unicode="b" horiz-adv-x="738" 
d="M81 0v700h310q133 0 199 -51.5t66 -138.5q0 -49 -29 -83t-57 -44l-29 -10v-5q7 -1 18 -4t39.5 -15t50 -29t39.5 -49t18 -71q0 -84 -73 -142t-203 -58h-349zM431 300h-210v-185h210q64 0 97 25t33 65q0 43 -32.5 69t-97.5 26zM391 415q57 0 88.5 24.5t31.5 60.5
t-31.5 60.5t-88.5 24.5h-170v-170h170z" />
    <glyph glyph-name="c" unicode="c" horiz-adv-x="698" 
d="M426 720q64 0 123 -17.5t85 -34.5l27 -18l-60 -95q-8 5 -22.5 12.5t-58 20t-84.5 12.5q-112 0 -181 -69t-69 -181t69 -181t181 -69q44 0 88 14t66 28l21 13l60 -95l-11 -8.5t-31.5 -19.5t-51.5 -24.5t-68 -19t-83 -8.5q-171 0 -278 104t-107 266t107 266t278 104z" />
    <glyph glyph-name="d" unicode="d" horiz-adv-x="767" 
d="M81 700h270q167 0 271 -99t104 -251q0 -155 -103.5 -252.5t-271.5 -97.5h-270v700zM351 585h-130v-470h130q102 0 166 65t64 170t-64 170t-166 65z" />
    <glyph glyph-name="e" unicode="e" horiz-adv-x="678" 
d="M81 0v700h560v-115h-420v-180h290v-115h-290v-175h430v-115h-570z" />
    <glyph glyph-name="f" unicode="f" horiz-adv-x="659" 
d="M81 0v700h560v-115h-420v-211h290v-114h-290v-260h-140z" />
    <glyph glyph-name="g" unicode="g" horiz-adv-x="750" 
d="M421 720q64 0 123 -17.5t86 -34.5l26 -18l-60 -95q-8 5 -22.5 12.5t-58 20t-84.5 12.5q-113 0 -181.5 -69t-68.5 -181t68.5 -181t181.5 -69q31 0 61 6t44 12l15 7v165h-145v115h285v-338q-4 -4 -12.5 -9.5t-36 -20.5t-57 -26.5t-74.5 -21t-90 -9.5q-168 0 -274 104
t-106 266t106 266t274 104z" />
    <glyph glyph-name="h" unicode="h" horiz-adv-x="802" 
d="M581 700h140v-700h-140v290h-360v-290h-140v700h140v-295h360v295z" />
    <glyph glyph-name="i" unicode="i" horiz-adv-x="302" 
d="M221 700v-700h-140v700h140z" />
    <glyph glyph-name="j" unicode="j" horiz-adv-x="551" 
d="M99 700h375v-445q0 -124 -76.5 -199.5t-203.5 -75.5q-49 0 -95 15t-68 30l-22 15l55 100q50 -40 120 -40q64 0 107 44t43 111v330h-235v115z" />
    <glyph glyph-name="k" unicode="k" horiz-adv-x="731" 
d="M711 700l-275 -295l295 -405h-160l-225 310l-125 -130v-180h-140v700h140v-330h5l315 330h170z" />
    <glyph glyph-name="l" unicode="l" 
d="M81 0v700h140v-585h395v-115h-535z" />
    <glyph glyph-name="m" unicode="m" horiz-adv-x="993" 
d="M559 100h-125l-175 375h-5l-55 -475h-145l85 700h155l200 -435h5l200 435h155l85 -700h-145l-55 475h-5z" />
    <glyph glyph-name="n" unicode="n" horiz-adv-x="802" 
d="M576 220h5v480h140v-700h-150l-345 480h-5v-480h-140v700h150z" />
    <glyph glyph-name="o" unicode="o" horiz-adv-x="832" 
d="M41 350q0 162 105 266t270 104t270 -104t105 -266t-105 -266t-270 -104t-270 104t-105 266zM646 350q0 111 -65.5 180.5t-164.5 69.5t-164.5 -69.5t-65.5 -180.5t65.5 -180.5t164.5 -69.5t164.5 69.5t65.5 180.5z" />
    <glyph glyph-name="p" unicode="p" horiz-adv-x="733" 
d="M81 700h320q142 0 221 -67.5t79 -172.5t-79 -172.5t-221 -67.5h-180v-220h-140v700zM401 585h-180v-250h180q69 0 112 37t43 88t-43 88t-112 37z" />
    <glyph glyph-name="q" unicode="q" horiz-adv-x="830" 
d="M785 350q0 -52 -13 -100t-31.5 -79t-36.5 -55t-31 -35l-13 -11l115 -170h-150l-70 105q-60 -25 -140 -25q-161 0 -265.5 104.5t-104.5 265.5t104.5 265.5t265.5 104.5t265.5 -104.5t104.5 -265.5zM185 350q0 -111 65.5 -180.5t164.5 -69.5q18 0 35.5 2.5t25.5 5.5l9 2
l-80 120h150l35 -50q6 7 15 20t24.5 57t15.5 93q0 111 -65.5 180.5t-164.5 69.5t-164.5 -69.5t-65.5 -180.5z" />
    <glyph glyph-name="r" unicode="r" horiz-adv-x="760" 
d="M81 700h320q138 0 214 -64.5t76 -165.5q0 -42 -13.5 -78t-32.5 -57.5t-38 -37t-33 -21.5l-13 -6v-5l185 -265h-165l-165 240h-195v-240h-140v700zM546 470q0 51 -38 83t-107 32h-180v-230h180q67 0 106 35t39 80z" />
    <glyph glyph-name="s" unicode="s" 
d="M337 720q42 0 83 -9t70 -21t52 -24.5t34 -21.5l11 -9l-55 -95q-9 7 -25 17t-64.5 26.5t-95.5 16.5q-66 0 -103 -25t-37 -55q0 -32 29.5 -55t73 -34.5t95 -29t95 -37t73 -61t29.5 -98.5q0 -95 -80.5 -160t-224.5 -65q-45 0 -89 10t-74.5 23.5t-54.5 27.5t-35 24l-12 10
l60 95q9 -8 25.5 -20.5t67.5 -33.5t102 -21q81 0 125.5 32.5t44.5 77.5q0 25 -22 43t-56.5 29.5t-76.5 23t-84.5 28t-77 39t-56.5 61.5t-22 91q0 80 75 140t200 60z" />
    <glyph glyph-name="t" unicode="t" horiz-adv-x="656" 
d="M18 700h620v-115h-240v-585h-140v585h-240v115z" />
    <glyph glyph-name="u" unicode="u" horiz-adv-x="794" 
d="M397 -20q-145 0 -232.5 83.5t-87.5 216.5v420h140v-420q0 -82 48.5 -131t131.5 -49t131.5 49t48.5 131v420h140v-420q0 -133 -87.5 -216.5t-232.5 -83.5z" />
    <glyph glyph-name="v" unicode="v" horiz-adv-x="743" 
d="M284 0l-275 700h155l205 -550h5l205 550h155l-275 -700h-175z" />
    <glyph glyph-name="w" unicode="w" horiz-adv-x="1091" 
d="M548 520h-5l-145 -520h-185l-195 700h150l145 -525h5l143 525h169l143 -525h5l145 525h150l-195 -700h-185z" />
    <glyph glyph-name="x" unicode="x" horiz-adv-x="735" 
d="M365 260l-195 -260h-170l265 360l-235 340h170l165 -240h5l165 240h170l-235 -340l265 -360h-170l-195 260h-5z" />
    <glyph glyph-name="y" unicode="y" horiz-adv-x="710" 
d="M360 360l200 340h150l-285 -480v-220h-140v220l-285 480h150l200 -340h10z" />
    <glyph glyph-name="z" unicode="z" horiz-adv-x="664" 
d="M42 585v115h585v-115l-410 -465v-5h415v-115h-600v115l410 465v5h-400z" />
    <glyph glyph-name="braceleft" unicode="{" horiz-adv-x="415" 
d="M182 265v-10l9 -3t20.5 -11t26 -21.5t20.5 -36.5t9 -53v-220q0 -23 20.5 -41.5t49.5 -18.5h60v-120h-60q-95 0 -152.5 51.5t-57.5 128.5v220q0 30 -19 50t-46 20h-35v120h35q27 0 46 20t19 50v220q0 77 57.5 128.5t152.5 51.5h60v-120h-60q-29 0 -49.5 -18.5t-20.5 -41.5
v-220q0 -29 -9 -52.5t-21.5 -36.5t-24.5 -21.5t-21 -11.5z" />
    <glyph glyph-name="bar" unicode="|" horiz-adv-x="307" 
d="M221 820v-1010h-135v1010h135z" />
    <glyph glyph-name="braceright" unicode="}" horiz-adv-x="415" 
d="M233 255v10l-9 3t-20.5 11t-26 21.5t-20.5 36.5t-9 53v220q0 23 -20.5 41.5t-49.5 18.5h-60v120h60q95 0 152.5 -51.5t57.5 -128.5v-220q0 -30 19 -50t46 -20h35v-120h-35q-27 0 -46 -20t-19 -50v-220q0 -77 -57.5 -128.5t-152.5 -51.5h-60v120h60q29 0 49.5 18.5
t20.5 41.5v220q0 29 9 52.5t21 36.5t24.5 21.5t21.5 11.5z" />
    <glyph glyph-name="asciitilde" unicode="~" horiz-adv-x="580" 
d="M210 325q-22 0 -36 -13.5t-14 -36.5v-35h-115v65q0 70 37 110t98 40q32 0 62 -15t48.5 -32.5t40 -32.5t39.5 -15q22 0 36 14t14 36v35h115v-65q0 -70 -37 -110t-98 -40q-41 0 -76.5 24t-63.5 47.5t-50 23.5z" />
    <glyph glyph-name="nbspace" unicode="&#xa0;" horiz-adv-x="290" 
 />
    <glyph glyph-name="currency" unicode="&#xa4;" horiz-adv-x="713" 
d="M27 220h85v40h-85v115h85v325h290q131 0 203 -61.5t72 -158.5t-72 -158.5t-203 -61.5h-150v-40h317v-115h-317v-105h-140v105h-85v115zM532 480q0 43 -36 74t-94 31h-150v-210h150q58 0 94 31t36 74z" />
    <glyph glyph-name="brokenbar" unicode="&#xa6;" horiz-adv-x="307" 
d="M221 820v-415h-135v415h135zM221 225v-415h-135v415h135z" />
    <glyph glyph-name="section" unicode="&#xa7;" horiz-adv-x="544" 
d="M392 120v-5l11.5 -5.5t26.5 -16.5t33.5 -28.5t26.5 -41t12 -53.5q0 -72 -68 -126t-182 -54q-36 0 -72 9t-61.5 21t-46 24.5t-30.5 21.5l-10 9l55 91q8 -7 23 -18t55.5 -29.5t76.5 -18.5q63 0 94 20.5t31 49.5q0 30 -33.5 53.5t-81.5 42t-95.5 40.5t-81 60t-33.5 89
q0 31 12.5 57t30 41.5t35 26.5t30.5 16l12 4v5q-4 1 -10 4t-21.5 14.5t-27.5 25.5t-21.5 38.5t-9.5 52.5q0 73 61.5 126.5t168.5 53.5q34 0 66 -6.5t54.5 -16t40 -19.5t25.5 -16l9 -7l-55 -91q-60 46 -130 46q-49 0 -77 -21t-28 -49q0 -30 31.5 -52.5t76.5 -39.5t89.5 -37.5
t76 -57.5t31.5 -88q0 -29 -12.5 -55t-30 -41.5t-35 -27t-30.5 -16.5zM267 350l-10 -2.5t-21.5 -9t-27.5 -17.5t-21.5 -27.5t-9.5 -38.5q0 -29 27.5 -50t55.5 -28l27 -7q4 1 10 3t21.5 9.5t27.5 17t21.5 27t9.5 38.5q0 29 -27.5 50t-55.5 28z" />
    <glyph glyph-name="copyright" unicode="&#xa9;" horiz-adv-x="1010" 
d="M530 200q24 0 48 7.5t36 14.5l11 8l45 -75q-7 -6 -19.5 -15t-51.5 -24.5t-79 -15.5q-89 0 -149.5 58.5t-60.5 141.5t60.5 141.5t149.5 58.5q38 0 74 -12.5t54 -25.5l17 -12l-45 -75q-40 25 -90 25q-45 0 -72.5 -27.5t-27.5 -72.5t27.5 -72.5t72.5 -27.5zM170 300
q0 -135 98.5 -232.5t236.5 -97.5t236.5 97.5t98.5 232.5t-98.5 232.5t-236.5 97.5t-236.5 -97.5t-98.5 -232.5zM965 300q0 -182 -133.5 -311t-326.5 -129t-326.5 129t-133.5 311t133.5 311t326.5 129t326.5 -129t133.5 -311z" />
    <glyph glyph-name="guillemotleft" unicode="&#xab;" horiz-adv-x="592" 
d="M311 435l-130 -175v-10l130 -175l-100 -65l-175 245l175 245zM556 435l-130 -175v-10l130 -175l-100 -65l-175 245l175 245z" />
    <glyph glyph-name="logicalnot" unicode="&#xac;" horiz-adv-x="581" 
d="M536 450v-250h-130v135h-365v115h495z" />
    <glyph glyph-name="uni00AD" unicode="&#xad;" horiz-adv-x="547" 
d="M41 405h465v-120h-465v120z" />
    <glyph glyph-name="registered" unicode="&#xae;" horiz-adv-x="1010" 
d="M715 110h-125l-85 130h-55v-130h-115v380h195q80 0 120 -33.5t40 -91.5q0 -33 -19 -58t-37 -33l-19 -9v-5zM530 400h-80v-70h80q18 0 29 10t11 25t-11 25t-29 10zM170 300q0 -135 98.5 -232.5t236.5 -97.5t236.5 97.5t98.5 232.5t-98.5 232.5t-236.5 97.5t-236.5 -97.5
t-98.5 -232.5zM965 300q0 -182 -133.5 -311t-326.5 -129t-326.5 129t-133.5 311t133.5 311t326.5 129t326.5 -129t133.5 -311z" />
    <glyph glyph-name="degree" unicode="&#xb0;" horiz-adv-x="442" 
d="M136 550q0 -38 24 -61.5t61 -23.5t61 23.5t24 61.5t-24 61.5t-61 23.5t-61 -23.5t-24 -61.5zM406 550q0 -72 -52 -121t-133 -49t-133 49t-52 121t52 121t133 49t133 -49t52 -121z" />
    <glyph glyph-name="plusminus" unicode="&#xb1;" horiz-adv-x="582" 
d="M351 651v-190h190v-120h-190v-166h190v-120h-500v120h190v166h-190v120h190v190h120z" />
    <glyph glyph-name="mu" unicode="&#xb5;" horiz-adv-x="642" 
d="M574 500v-475q-95 -45 -210 -45q-49 0 -89 13t-55 26l-16 13h-5v-222h-130l-1 448h1v242h130v-242l2 -74q7 -42 42 -68t91 -26q24 0 51.5 4t42.5 8l16 3v395h130z" />
    <glyph glyph-name="paragraph" unicode="&#xb6;" horiz-adv-x="657" 
d="M218 700h430v-115h-90v-775h-130v775h-85v-775h-130v510q-83 0 -139 53t-56 132q0 83 57 139t143 56z" />
    <glyph glyph-name="periodcentered" unicode="&#xb7;" horiz-adv-x="286" 
d="M63 350q0 30 23.5 52.5t56.5 22.5t56.5 -22.5t23.5 -52.5t-23.5 -52.5t-56.5 -22.5t-56.5 22.5t-23.5 52.5z" />
    <glyph glyph-name="guillemotright" unicode="&#xbb;" horiz-adv-x="592" 
d="M411 260l-130 175l100 65l175 -245l-175 -245l-100 65l130 175v10zM166 260l-130 175l100 65l175 -245l-175 -245l-100 65l130 175v10z" />
    <glyph glyph-name="afii10023" unicode="&#x401;" horiz-adv-x="678" 
d="M185 880q0 30 20 50t50 20t50 -20t20 -50t-20 -50t-50 -20t-50 20t-20 50zM410 880q0 30 20 50t50 20t50 -20t20 -50t-20 -50t-50 -20t-50 20t-20 50zM81 0v700h560v-115h-420v-180h290v-115h-290v-175h430v-115h-570z" />
    <glyph glyph-name="afii10051" unicode="&#x402;" horiz-adv-x="810" 
d="M0 700h515v-115h-210v-158q70 33 170 33q129 0 209.5 -75.5t80.5 -189.5q0 -55 -20.5 -102.5t-50 -77t-59 -51t-49.5 -30.5l-21 -9l-55 90q5 2 12.5 6.5t27.5 21t35 35.5t27.5 50.5t12.5 66.5q0 57 -47 101t-113 44q-40 0 -80 -8t-60 -16l-20 -7v-309h-140v585h-165v115z
" />
    <glyph glyph-name="afii10052" unicode="&#x403;" horiz-adv-x="615" 
d="M356 965h150l-120 -185h-105zM81 0v700h525v-115h-385v-585h-140z" />
    <glyph glyph-name="afii10053" unicode="&#x404;" horiz-adv-x="693" 
d="M421 720q64 0 123 -17.5t86 -34.5l26 -18l-60 -95q-8 5 -22.5 12.5t-58 20t-84.5 12.5q-94 0 -157 -53.5t-83 -136.5h290v-115h-290q20 -86 83 -140.5t157 -54.5q44 0 88 14t65 28l22 13l60 -95l-11 -8.5t-31.5 -19.5t-51.5 -24.5t-68 -19t-83 -8.5q-168 0 -274 104
t-106 266t106 266t274 104z" />
    <glyph glyph-name="afii10054" unicode="&#x405;" 
d="M337 720q42 0 83 -9t70 -21t52 -24.5t34 -21.5l11 -9l-55 -95q-9 7 -25 17t-64.5 26.5t-95.5 16.5q-66 0 -103 -25t-37 -55q0 -32 29.5 -55t73 -34.5t95 -29t95 -37t73 -61t29.5 -98.5q0 -95 -80.5 -160t-224.5 -65q-45 0 -89 10t-74.5 23.5t-54.5 27.5t-35 24l-12 10
l60 95q9 -8 25.5 -20.5t67.5 -33.5t102 -21q81 0 125.5 32.5t44.5 77.5q0 25 -22 43t-56.5 29.5t-76.5 23t-84.5 28t-77 39t-56.5 61.5t-22 91q0 80 75 140t200 60z" />
    <glyph glyph-name="afii10055" unicode="&#x406;" horiz-adv-x="302" 
d="M221 700v-700h-140v700h140z" />
    <glyph glyph-name="afii10056" unicode="&#x407;" horiz-adv-x="311" 
d="M-27 870q0 30 20 50t50 20t50 -20t20 -50t-20 -50t-50 -20t-50 20t-20 50zM198 870q0 30 20 50t50 20t50 -20t20 -50t-20 -50t-50 -20t-50 20t-20 50zM228 700v-700h-140v700h140z" />
    <glyph glyph-name="afii10057" unicode="&#x408;" horiz-adv-x="551" 
d="M99 700h375v-445q0 -124 -76.5 -199.5t-203.5 -75.5q-49 0 -95 15t-68 30l-22 15l55 100q50 -40 120 -40q64 0 107 44t43 111v330h-235v115z" />
    <glyph glyph-name="afii10058" unicode="&#x409;" horiz-adv-x="1136" 
d="M805 0h-265v585h-205l-40 -345q-15 -129 -74 -194.5t-151 -65.5q-18 0 -35.5 2.5t-26.5 5.5l-8 2v110h30q104 0 120 140l55 460h475v-230h125q142 0 218.5 -65t76.5 -170t-76.5 -170t-218.5 -65zM955 235q0 45 -41.5 82.5t-108.5 37.5h-125v-240h125q69 0 109.5 34.5
t40.5 85.5z" />
    <glyph glyph-name="afii10059" unicode="&#x40a;" horiz-adv-x="1117" 
d="M801 0h-290v325h-290v-325h-140v700h140v-260h290v260h140v-260h150q134 0 207 -61t73 -159t-73 -159t-207 -61zM936 220q0 38 -38 71.5t-97 33.5h-150v-210h150q61 0 98 31t37 74z" />
    <glyph glyph-name="afii10060" unicode="&#x40b;" horiz-adv-x="819" 
d="M0 700h515v-115h-210v-157q70 32 170 32q131 0 210.5 -78t79.5 -203v-179h-140v179q0 68 -46 114.5t-114 46.5q-40 0 -80 -7.5t-60 -14.5l-20 -8v-310h-140v585h-165v115z" />
    <glyph glyph-name="afii10061" unicode="&#x40c;" horiz-adv-x="750" 
d="M385 955h150l-120 -185h-105zM491 520l50 180h145l-50 -180q-12 -43 -29.5 -77.5t-33.5 -53t-30.5 -30.5t-22.5 -15l-9 -4v-5l230 -335h-165l-205 300h-150v-300h-140v700h140v-285h130q110 0 140 105z" />
    <glyph glyph-name="afii10062" unicode="&#x40e;" horiz-adv-x="709" 
d="M359 880q33 0 54 20t21 50h105q0 -78 -49.5 -126.5t-130.5 -48.5t-130.5 48.5t-49.5 126.5h105q0 -30 21 -50t54 -20zM224 0l89 190h-59l-245 510h155l190 -405h10l190 405h155l-330 -700h-155z" />
    <glyph glyph-name="afii10145" unicode="&#x40f;" horiz-adv-x="792" 
d="M711 0h-245v-150h-140v150h-245v700h140v-585h350v585h140v-700z" />
    <glyph glyph-name="afii10017" unicode="&#x410;" horiz-adv-x="773" 
d="M474 700l290 -700h-150l-55 140h-345l-55 -140h-150l290 700h175zM384 550l-120 -290h245l-120 290h-5z" />
    <glyph glyph-name="afii10018" unicode="&#x411;" horiz-adv-x="733" 
d="M221 115h195q65 0 102.5 31.5t37.5 78.5t-37.5 78.5t-102.5 31.5h-195v-220zM701 225q0 -94 -77.5 -159.5t-207.5 -65.5h-335v700h555v-115h-415v-135h195q130 0 207.5 -65.5t77.5 -159.5z" />
    <glyph glyph-name="afii10019" unicode="&#x412;" horiz-adv-x="738" 
d="M81 0v700h310q133 0 199 -51.5t66 -138.5q0 -49 -29 -83t-57 -44l-29 -10v-5q7 -1 18 -4t39.5 -15t50 -29t39.5 -49t18 -71q0 -84 -73 -142t-203 -58h-349zM431 300h-210v-185h210q64 0 97 25t33 65q0 43 -32.5 69t-97.5 26zM391 415q57 0 88.5 24.5t31.5 60.5
t-31.5 60.5t-88.5 24.5h-170v-170h170z" />
    <glyph glyph-name="afii10020" unicode="&#x413;" horiz-adv-x="615" 
d="M81 0v700h525v-115h-385v-585h-140z" />
    <glyph glyph-name="afii10021" unicode="&#x414;" horiz-adv-x="807" 
d="M185 700h505v-585h90v-265h-140v150h-500v-150h-140v265h10q46 0 79 37t41 103zM275 255q-2 -33 -18.5 -67t-31.5 -51l-15 -17v-5h340v470h-235z" />
    <glyph glyph-name="afii10022" unicode="&#x415;" horiz-adv-x="678" 
d="M81 0v700h560v-115h-420v-180h290v-115h-290v-175h430v-115h-570z" />
    <glyph glyph-name="afii10024" unicode="&#x416;" horiz-adv-x="1148" 
d="M209 700l50 -180q30 -105 140 -105h105v285h140v-285h105q110 0 140 105l50 180h145l-50 -180q-12 -43 -29.5 -77.5t-33.5 -53t-30.5 -30.5t-22.5 -15l-9 -4v-5l230 -335h-165l-205 300h-125v-300h-140v300h-125l-205 -300h-165l230 335v5q-3 1 -9 3.5t-22.5 15.5
t-31.5 30.5t-32.5 52.5t-29.5 78l-50 180h145z" />
    <glyph glyph-name="afii10025" unicode="&#x417;" horiz-adv-x="629" 
d="M283 -20q-46 0 -90.5 10t-74.5 23.5t-53.5 27.5t-34.5 24l-12 10l60 95q9 -8 25 -20.5t67 -33.5t103 -21q81 0 125.5 30.5t44.5 74.5q0 45 -42.5 75t-127.5 30h-85v115h105q56 0 93 28t37 62q0 37 -36.5 63.5t-103.5 26.5q-46 0 -91 -15t-67 -30l-22 -15l-60 95l11.5 9
t32.5 20.5t52.5 26t69 20.5t84.5 9q125 0 200 -60t75 -140q0 -36 -15 -65t-36 -44t-42.5 -25t-36.5 -13l-15 -3v-5q7 -1 18 -3.5t39.5 -14.5t50 -29t39.5 -49.5t18 -73.5q0 -88 -82 -151.5t-223 -63.5z" />
    <glyph glyph-name="afii10026" unicode="&#x418;" horiz-adv-x="797" 
d="M221 0h-140v700h140v-480h5l350 480h140v-700h-140v480h-5z" />
    <glyph glyph-name="afii10027" unicode="&#x419;" horiz-adv-x="797" 
d="M401 870q33 0 54 20t21 50h105q0 -78 -49.5 -126.5t-130.5 -48.5t-130.5 48.5t-49.5 126.5h105q0 -30 21 -50t54 -20zM221 0h-140v700h140v-480h5l350 480h140v-700h-140v480h-5z" />
    <glyph glyph-name="afii10028" unicode="&#x41a;" horiz-adv-x="750" 
d="M491 520l50 180h145l-50 -180q-12 -43 -29.5 -77.5t-33.5 -53t-30.5 -30.5t-22.5 -15l-9 -4v-5l230 -335h-165l-205 300h-150v-300h-140v700h140v-285h130q110 0 140 105z" />
    <glyph glyph-name="afii10029" unicode="&#x41b;" horiz-adv-x="801" 
d="M205 700h515v-700h-140v585h-245l-40 -345q-15 -129 -74 -194.5t-151 -65.5q-18 0 -35.5 2.5t-26.5 5.5l-8 2v110h30q104 0 120 140z" />
    <glyph glyph-name="afii10030" unicode="&#x41c;" horiz-adv-x="993" 
d="M559 100h-125l-175 375h-5l-55 -475h-145l85 700h155l200 -435h5l200 435h155l85 -700h-145l-55 475h-5z" />
    <glyph glyph-name="afii10031" unicode="&#x41d;" horiz-adv-x="802" 
d="M581 700h140v-700h-140v290h-360v-290h-140v700h140v-295h360v295z" />
    <glyph glyph-name="afii10032" unicode="&#x41e;" horiz-adv-x="832" 
d="M41 350q0 162 105 266t270 104t270 -104t105 -266t-105 -266t-270 -104t-270 104t-105 266zM646 350q0 111 -65.5 180.5t-164.5 69.5t-164.5 -69.5t-65.5 -180.5t65.5 -180.5t164.5 -69.5t164.5 69.5t65.5 180.5z" />
    <glyph glyph-name="afii10033" unicode="&#x41f;" horiz-adv-x="797" 
d="M81 700h635v-700h-140v585h-355v-585h-140v700z" />
    <glyph glyph-name="afii10034" unicode="&#x420;" horiz-adv-x="733" 
d="M81 700h320q142 0 221 -67.5t79 -172.5t-79 -172.5t-221 -67.5h-180v-220h-140v700zM401 585h-180v-250h180q69 0 112 37t43 88t-43 88t-112 37z" />
    <glyph glyph-name="afii10035" unicode="&#x421;" horiz-adv-x="698" 
d="M426 720q64 0 123 -17.5t85 -34.5l27 -18l-60 -95q-8 5 -22.5 12.5t-58 20t-84.5 12.5q-112 0 -181 -69t-69 -181t69 -181t181 -69q44 0 88 14t66 28l21 13l60 -95l-11 -8.5t-31.5 -19.5t-51.5 -24.5t-68 -19t-83 -8.5q-171 0 -278 104t-107 266t107 266t278 104z" />
    <glyph glyph-name="afii10036" unicode="&#x422;" horiz-adv-x="656" 
d="M18 700h620v-115h-240v-585h-140v585h-240v115z" />
    <glyph glyph-name="afii10037" unicode="&#x423;" horiz-adv-x="709" 
d="M224 0l89 190h-59l-245 510h155l190 -405h10l190 405h155l-330 -700h-155z" />
    <glyph glyph-name="afii10038" unicode="&#x424;" horiz-adv-x="974" 
d="M557 730v-75q185 -11 285 -95.5t100 -209.5t-100 -209.5t-285 -95.5v-75h-140v75q-185 11 -285 95.5t-100 209.5t100 209.5t285 95.5v75h140zM557 535v-370q116 4 178 55.5t62 129.5t-62 129.5t-178 55.5zM417 165v370q-116 -4 -178 -55.5t-62 -129.5t62 -129.5
t178 -55.5z" />
    <glyph glyph-name="afii10039" unicode="&#x425;" horiz-adv-x="735" 
d="M365 260l-195 -260h-170l265 360l-235 340h170l165 -240h5l165 240h170l-235 -340l265 -360h-170l-195 260h-5z" />
    <glyph glyph-name="afii10040" unicode="&#x426;" horiz-adv-x="813" 
d="M646 -149v149h-565v700h140v-585h335v585h140v-585h90v-264h-140z" />
    <glyph glyph-name="afii10041" unicode="&#x427;" horiz-adv-x="744" 
d="M63 500v200h140v-200q0 -68 46.5 -114t113.5 -46q40 0 80 7.5t60 14.5l20 8v330h140v-700h-140v250q-70 -30 -170 -30q-131 0 -210.5 78t-79.5 202z" />
    <glyph glyph-name="afii10042" unicode="&#x428;" horiz-adv-x="1122" 
d="M1041 700v-700h-960v700h140v-585h270v585h140v-585h270v585h140z" />
    <glyph glyph-name="afii10043" unicode="&#x429;" horiz-adv-x="1158" 
d="M991 0h-910v700h140v-585h270v585h140v-585h270v585h140v-585h90v-265h-140v150z" />
    <glyph glyph-name="afii10044" unicode="&#x42a;" horiz-adv-x="791" 
d="M460 0h-290v585h-170v115h310v-230h150q142 0 218.5 -65t76.5 -170t-76.5 -170t-218.5 -65zM610 235q0 45 -41.5 82.5t-108.5 37.5h-150v-240h150q69 0 109.5 34.5t40.5 85.5z" />
    <glyph glyph-name="afii10045" unicode="&#x42b;" horiz-adv-x="1002" 
d="M521 235q0 45 -41.5 82.5t-108.5 37.5h-150v-240h150q69 0 109.5 34.5t40.5 85.5zM371 0h-290v700h140v-230h150q142 0 218.5 -65t76.5 -170t-76.5 -170t-218.5 -65zM921 700v-700h-140v700h140z" />
    <glyph glyph-name="afii10046" unicode="&#x42c;" horiz-adv-x="717" 
d="M536 235q0 45 -41.5 82.5t-108.5 37.5h-165v-240h165q69 0 109.5 34.5t40.5 85.5zM386 0h-305v700h140v-230h165q142 0 218.5 -65t76.5 -170t-76.5 -170t-218.5 -65z" />
    <glyph glyph-name="afii10047" unicode="&#x42d;" horiz-adv-x="698" 
d="M272 720q171 0 278 -104t107 -266t-107 -266t-278 -104q-67 0 -128 20t-89 40l-28 20l60 95q8 -6 23.5 -15t61.5 -24.5t90 -15.5q100 0 162.5 54t82.5 141h-295v115h295q-20 84 -82.5 137t-162.5 53q-41 0 -82.5 -11t-61.5 -23l-21 -11l-60 95q10 8 29 19.5t80.5 31
t125.5 19.5z" />
    <glyph glyph-name="afii10048" unicode="&#x42e;" horiz-adv-x="1097" 
d="M1056 350q0 -160 -103 -265t-257 -105q-143 0 -239.5 87.5t-115.5 222.5h-120v-290h-140v700h140v-295h120q19 138 115.5 226.5t239.5 88.5q154 0 257 -105t103 -265zM481 350q0 -110 63 -180t152 -70t152 70t63 180t-63 180t-152 70t-152 -70t-63 -180z" />
    <glyph glyph-name="afii10049" unicode="&#x42f;" horiz-adv-x="760" 
d="M354 700h325v-700h-140v240h-195l-170 -240h-160l190 265v5q-6 2 -15.5 5.5t-33.5 19t-42.5 36t-33.5 57.5t-15 82q0 105 74 167.5t216 62.5zM209 470q0 -45 39 -80t106 -35h185v230h-185q-69 0 -107 -32t-38 -83z" />
    <glyph glyph-name="afii10065" unicode="&#x430;" horiz-adv-x="773" 
d="M474 700l290 -700h-150l-55 140h-345l-55 -140h-150l290 700h175zM384 550l-120 -290h245l-120 290h-5z" />
    <glyph glyph-name="afii10066" unicode="&#x431;" horiz-adv-x="733" 
d="M221 115h195q65 0 102.5 31.5t37.5 78.5t-37.5 78.5t-102.5 31.5h-195v-220zM701 225q0 -94 -77.5 -159.5t-207.5 -65.5h-335v700h555v-115h-415v-135h195q130 0 207.5 -65.5t77.5 -159.5z" />
    <glyph glyph-name="afii10067" unicode="&#x432;" horiz-adv-x="738" 
d="M81 0v700h310q133 0 199 -51.5t66 -138.5q0 -49 -29 -83t-57 -44l-29 -10v-5q7 -1 18 -4t39.5 -15t50 -29t39.5 -49t18 -71q0 -84 -73 -142t-203 -58h-349zM431 300h-210v-185h210q64 0 97 25t33 65q0 43 -32.5 69t-97.5 26zM391 415q57 0 88.5 24.5t31.5 60.5
t-31.5 60.5t-88.5 24.5h-170v-170h170z" />
    <glyph glyph-name="afii10068" unicode="&#x433;" horiz-adv-x="615" 
d="M81 0v700h525v-115h-385v-585h-140z" />
    <glyph glyph-name="afii10069" unicode="&#x434;" horiz-adv-x="807" 
d="M185 700h505v-585h90v-265h-140v150h-500v-150h-140v265h10q46 0 79 37t41 103zM275 255q-2 -33 -18.5 -67t-31.5 -51l-15 -17v-5h340v470h-235z" />
    <glyph glyph-name="afii10070" unicode="&#x435;" horiz-adv-x="678" 
d="M81 0v700h560v-115h-420v-180h290v-115h-290v-175h430v-115h-570z" />
    <glyph glyph-name="afii10072" unicode="&#x436;" horiz-adv-x="1148" 
d="M209 700l50 -180q30 -105 140 -105h105v285h140v-285h105q110 0 140 105l50 180h145l-50 -180q-12 -43 -29.5 -77.5t-33.5 -53t-30.5 -30.5t-22.5 -15l-9 -4v-5l230 -335h-165l-205 300h-125v-300h-140v300h-125l-205 -300h-165l230 335v5q-3 1 -9 3.5t-22.5 15.5
t-31.5 30.5t-32.5 52.5t-29.5 78l-50 180h145z" />
    <glyph glyph-name="afii10073" unicode="&#x437;" horiz-adv-x="629" 
d="M283 -20q-46 0 -90.5 10t-74.5 23.5t-53.5 27.5t-34.5 24l-12 10l60 95q9 -8 25 -20.5t67 -33.5t103 -21q81 0 125.5 30.5t44.5 74.5q0 45 -42.5 75t-127.5 30h-85v115h105q56 0 93 28t37 62q0 37 -36.5 63.5t-103.5 26.5q-46 0 -91 -15t-67 -30l-22 -15l-60 95l11.5 9
t32.5 20.5t52.5 26t69 20.5t84.5 9q125 0 200 -60t75 -140q0 -36 -15 -65t-36 -44t-42.5 -25t-36.5 -13l-15 -3v-5q7 -1 18 -3.5t39.5 -14.5t50 -29t39.5 -49.5t18 -73.5q0 -88 -82 -151.5t-223 -63.5z" />
    <glyph glyph-name="afii10074" unicode="&#x438;" horiz-adv-x="797" 
d="M221 0h-140v700h140v-480h5l350 480h140v-700h-140v480h-5z" />
    <glyph glyph-name="afii10075" unicode="&#x439;" horiz-adv-x="797" 
d="M401 870q33 0 54 20t21 50h105q0 -78 -49.5 -126.5t-130.5 -48.5t-130.5 48.5t-49.5 126.5h105q0 -30 21 -50t54 -20zM221 0h-140v700h140v-480h5l350 480h140v-700h-140v480h-5z" />
    <glyph glyph-name="afii10076" unicode="&#x43a;" horiz-adv-x="750" 
d="M491 520l50 180h145l-50 -180q-12 -43 -29.5 -77.5t-33.5 -53t-30.5 -30.5t-22.5 -15l-9 -4v-5l230 -335h-165l-205 300h-150v-300h-140v700h140v-285h130q110 0 140 105z" />
    <glyph glyph-name="afii10077" unicode="&#x43b;" horiz-adv-x="801" 
d="M205 700h515v-700h-140v585h-245l-40 -345q-15 -129 -74 -194.5t-151 -65.5q-18 0 -35.5 2.5t-26.5 5.5l-8 2v110h30q104 0 120 140z" />
    <glyph glyph-name="afii10078" unicode="&#x43c;" horiz-adv-x="993" 
d="M559 100h-125l-175 375h-5l-55 -475h-145l85 700h155l200 -435h5l200 435h155l85 -700h-145l-55 475h-5z" />
    <glyph glyph-name="afii10079" unicode="&#x43d;" horiz-adv-x="802" 
d="M581 700h140v-700h-140v290h-360v-290h-140v700h140v-295h360v295z" />
    <glyph glyph-name="afii10080" unicode="&#x43e;" horiz-adv-x="832" 
d="M41 350q0 162 105 266t270 104t270 -104t105 -266t-105 -266t-270 -104t-270 104t-105 266zM646 350q0 111 -65.5 180.5t-164.5 69.5t-164.5 -69.5t-65.5 -180.5t65.5 -180.5t164.5 -69.5t164.5 69.5t65.5 180.5z" />
    <glyph glyph-name="afii10081" unicode="&#x43f;" horiz-adv-x="797" 
d="M81 700h635v-700h-140v585h-355v-585h-140v700z" />
    <glyph glyph-name="afii10082" unicode="&#x440;" horiz-adv-x="733" 
d="M81 700h320q142 0 221 -67.5t79 -172.5t-79 -172.5t-221 -67.5h-180v-220h-140v700zM401 585h-180v-250h180q69 0 112 37t43 88t-43 88t-112 37z" />
    <glyph glyph-name="afii10083" unicode="&#x441;" horiz-adv-x="698" 
d="M426 720q64 0 123 -17.5t85 -34.5l27 -18l-60 -95q-8 5 -22.5 12.5t-58 20t-84.5 12.5q-112 0 -181 -69t-69 -181t69 -181t181 -69q44 0 88 14t66 28l21 13l60 -95l-11 -8.5t-31.5 -19.5t-51.5 -24.5t-68 -19t-83 -8.5q-171 0 -278 104t-107 266t107 266t278 104z" />
    <glyph glyph-name="afii10084" unicode="&#x442;" horiz-adv-x="656" 
d="M18 700h620v-115h-240v-585h-140v585h-240v115z" />
    <glyph glyph-name="afii10085" unicode="&#x443;" horiz-adv-x="709" 
d="M224 0l89 190h-59l-245 510h155l190 -405h10l190 405h155l-330 -700h-155z" />
    <glyph glyph-name="afii10086" unicode="&#x444;" horiz-adv-x="974" 
d="M557 730v-75q185 -11 285 -95.5t100 -209.5t-100 -209.5t-285 -95.5v-75h-140v75q-185 11 -285 95.5t-100 209.5t100 209.5t285 95.5v75h140zM557 535v-370q116 4 178 55.5t62 129.5t-62 129.5t-178 55.5zM417 165v370q-116 -4 -178 -55.5t-62 -129.5t62 -129.5
t178 -55.5z" />
    <glyph glyph-name="afii10087" unicode="&#x445;" horiz-adv-x="735" 
d="M365 260l-195 -260h-170l265 360l-235 340h170l165 -240h5l165 240h170l-235 -340l265 -360h-170l-195 260h-5z" />
    <glyph glyph-name="afii10088" unicode="&#x446;" horiz-adv-x="813" 
d="M646 -149v149h-565v700h140v-585h335v585h140v-585h90v-264h-140z" />
    <glyph glyph-name="afii10089" unicode="&#x447;" horiz-adv-x="744" 
d="M63 500v200h140v-200q0 -68 46.5 -114t113.5 -46q40 0 80 7.5t60 14.5l20 8v330h140v-700h-140v250q-70 -30 -170 -30q-131 0 -210.5 78t-79.5 202z" />
    <glyph glyph-name="afii10090" unicode="&#x448;" horiz-adv-x="1122" 
d="M1041 700v-700h-960v700h140v-585h270v585h140v-585h270v585h140z" />
    <glyph glyph-name="afii10091" unicode="&#x449;" horiz-adv-x="1158" 
d="M991 0h-910v700h140v-585h270v585h140v-585h270v585h140v-585h90v-265h-140v150z" />
    <glyph glyph-name="afii10092" unicode="&#x44a;" horiz-adv-x="791" 
d="M460 0h-290v585h-170v115h310v-230h150q142 0 218.5 -65t76.5 -170t-76.5 -170t-218.5 -65zM610 235q0 45 -41.5 82.5t-108.5 37.5h-150v-240h150q69 0 109.5 34.5t40.5 85.5z" />
    <glyph glyph-name="afii10093" unicode="&#x44b;" horiz-adv-x="1002" 
d="M521 235q0 45 -41.5 82.5t-108.5 37.5h-150v-240h150q69 0 109.5 34.5t40.5 85.5zM371 0h-290v700h140v-230h150q142 0 218.5 -65t76.5 -170t-76.5 -170t-218.5 -65zM921 700v-700h-140v700h140z" />
    <glyph glyph-name="afii10094" unicode="&#x44c;" horiz-adv-x="717" 
d="M536 235q0 45 -41.5 82.5t-108.5 37.5h-165v-240h165q69 0 109.5 34.5t40.5 85.5zM386 0h-305v700h140v-230h165q142 0 218.5 -65t76.5 -170t-76.5 -170t-218.5 -65z" />
    <glyph glyph-name="afii10095" unicode="&#x44d;" horiz-adv-x="698" 
d="M272 720q171 0 278 -104t107 -266t-107 -266t-278 -104q-67 0 -128 20t-89 40l-28 20l60 95q8 -6 23.5 -15t61.5 -24.5t90 -15.5q100 0 162.5 54t82.5 141h-295v115h295q-20 84 -82.5 137t-162.5 53q-41 0 -82.5 -11t-61.5 -23l-21 -11l-60 95q10 8 29 19.5t80.5 31
t125.5 19.5z" />
    <glyph glyph-name="afii10096" unicode="&#x44e;" horiz-adv-x="1097" 
d="M1056 350q0 -160 -103 -265t-257 -105q-143 0 -239.5 87.5t-115.5 222.5h-120v-290h-140v700h140v-295h120q19 138 115.5 226.5t239.5 88.5q154 0 257 -105t103 -265zM481 350q0 -110 63 -180t152 -70t152 70t63 180t-63 180t-152 70t-152 -70t-63 -180z" />
    <glyph glyph-name="afii10097" unicode="&#x44f;" horiz-adv-x="760" 
d="M354 700h325v-700h-140v240h-195l-170 -240h-160l190 265v5q-6 2 -15.5 5.5t-33.5 19t-42.5 36t-33.5 57.5t-15 82q0 105 74 167.5t216 62.5zM209 470q0 -45 39 -80t106 -35h185v230h-185q-69 0 -107 -32t-38 -83z" />
    <glyph glyph-name="afii10071" unicode="&#x451;" horiz-adv-x="678" 
d="M185 880q0 30 20 50t50 20t50 -20t20 -50t-20 -50t-50 -20t-50 20t-20 50zM410 880q0 30 20 50t50 20t50 -20t20 -50t-20 -50t-50 -20t-50 20t-20 50zM81 0v700h560v-115h-420v-180h290v-115h-290v-175h430v-115h-570z" />
    <glyph glyph-name="afii10099" unicode="&#x452;" horiz-adv-x="810" 
d="M0 700h515v-115h-210v-158q70 33 170 33q129 0 209.5 -75.5t80.5 -189.5q0 -55 -20.5 -102.5t-50 -77t-59 -51t-49.5 -30.5l-21 -9l-55 90q5 2 12.5 6.5t27.5 21t35 35.5t27.5 50.5t12.5 66.5q0 57 -47 101t-113 44q-40 0 -80 -8t-60 -16l-20 -7v-309h-140v585h-165v115z
" />
    <glyph glyph-name="afii10100" unicode="&#x453;" horiz-adv-x="615" 
d="M356 965h150l-120 -185h-105zM81 0v700h525v-115h-385v-585h-140z" />
    <glyph glyph-name="afii10101" unicode="&#x454;" horiz-adv-x="693" 
d="M421 720q64 0 123 -17.5t86 -34.5l26 -18l-60 -95q-8 5 -22.5 12.5t-58 20t-84.5 12.5q-94 0 -157 -53.5t-83 -136.5h290v-115h-290q20 -86 83 -140.5t157 -54.5q44 0 88 14t65 28l22 13l60 -95l-11 -8.5t-31.5 -19.5t-51.5 -24.5t-68 -19t-83 -8.5q-168 0 -274 104
t-106 266t106 266t274 104z" />
    <glyph glyph-name="afii10102" unicode="&#x455;" 
d="M337 720q42 0 83 -9t70 -21t52 -24.5t34 -21.5l11 -9l-55 -95q-9 7 -25 17t-64.5 26.5t-95.5 16.5q-66 0 -103 -25t-37 -55q0 -32 29.5 -55t73 -34.5t95 -29t95 -37t73 -61t29.5 -98.5q0 -95 -80.5 -160t-224.5 -65q-45 0 -89 10t-74.5 23.5t-54.5 27.5t-35 24l-12 10
l60 95q9 -8 25.5 -20.5t67.5 -33.5t102 -21q81 0 125.5 32.5t44.5 77.5q0 25 -22 43t-56.5 29.5t-76.5 23t-84.5 28t-77 39t-56.5 61.5t-22 91q0 80 75 140t200 60z" />
    <glyph glyph-name="afii10103" unicode="&#x456;" horiz-adv-x="302" 
d="M221 700v-700h-140v700h140z" />
    <glyph glyph-name="afii10104" unicode="&#x457;" horiz-adv-x="311" 
d="M-27 870q0 30 20 50t50 20t50 -20t20 -50t-20 -50t-50 -20t-50 20t-20 50zM198 870q0 30 20 50t50 20t50 -20t20 -50t-20 -50t-50 -20t-50 20t-20 50zM228 700v-700h-140v700h140z" />
    <glyph glyph-name="afii10105" unicode="&#x458;" horiz-adv-x="551" 
d="M99 700h375v-445q0 -124 -76.5 -199.5t-203.5 -75.5q-49 0 -95 15t-68 30l-22 15l55 100q50 -40 120 -40q64 0 107 44t43 111v330h-235v115z" />
    <glyph glyph-name="afii10106" unicode="&#x459;" horiz-adv-x="1136" 
d="M805 0h-265v585h-205l-40 -345q-15 -129 -74 -194.5t-151 -65.5q-18 0 -35.5 2.5t-26.5 5.5l-8 2v110h30q104 0 120 140l55 460h475v-230h125q142 0 218.5 -65t76.5 -170t-76.5 -170t-218.5 -65zM955 235q0 45 -41.5 82.5t-108.5 37.5h-125v-240h125q69 0 109.5 34.5
t40.5 85.5z" />
    <glyph glyph-name="afii10107" unicode="&#x45a;" horiz-adv-x="1117" 
d="M801 0h-290v325h-290v-325h-140v700h140v-260h290v260h140v-260h150q134 0 207 -61t73 -159t-73 -159t-207 -61zM936 220q0 38 -38 71.5t-97 33.5h-150v-210h150q61 0 98 31t37 74z" />
    <glyph glyph-name="afii10108" unicode="&#x45b;" horiz-adv-x="819" 
d="M0 700h515v-115h-210v-157q70 32 170 32q131 0 210.5 -78t79.5 -203v-179h-140v179q0 68 -46 114.5t-114 46.5q-40 0 -80 -7.5t-60 -14.5l-20 -8v-310h-140v585h-165v115z" />
    <glyph glyph-name="afii10109" unicode="&#x45c;" horiz-adv-x="750" 
d="M385 955h150l-120 -185h-105zM491 520l50 180h145l-50 -180q-12 -43 -29.5 -77.5t-33.5 -53t-30.5 -30.5t-22.5 -15l-9 -4v-5l230 -335h-165l-205 300h-150v-300h-140v700h140v-285h130q110 0 140 105z" />
    <glyph glyph-name="afii10110" unicode="&#x45e;" horiz-adv-x="709" 
d="M359 880q33 0 54 20t21 50h105q0 -78 -49.5 -126.5t-130.5 -48.5t-130.5 48.5t-49.5 126.5h105q0 -30 21 -50t54 -20zM224 0l89 190h-59l-245 510h155l190 -405h10l190 405h155l-330 -700h-155z" />
    <glyph glyph-name="afii10193" unicode="&#x45f;" horiz-adv-x="792" 
d="M711 0h-245v-150h-140v150h-245v700h140v-585h350v585h140v-700z" />
    <glyph glyph-name="afii10050" unicode="&#x490;" horiz-adv-x="615" 
d="M81 0v700h385v90h140v-205h-385v-585h-140z" />
    <glyph glyph-name="afii10098" unicode="&#x491;" horiz-adv-x="615" 
d="M81 0v700h385v90h140v-205h-385v-585h-140z" />
    <glyph glyph-name="endash" unicode="&#x2013;" horiz-adv-x="697" 
d="M41 395h615v-120h-615v120z" />
    <glyph glyph-name="emdash" unicode="&#x2014;" horiz-adv-x="872" 
d="M41 395h790v-120h-790v120z" />
    <glyph glyph-name="quoteleft" unicode="&#x2018;" horiz-adv-x="242" 
d="M138 595v-5q30 -4 50 -24.5t20 -50.5t-23.5 -52.5t-56.5 -22.5q-34 0 -57 25t-23 65q0 35 12.5 66.5t30 51.5t35 34.5t30.5 21.5l12 6l25 -45q-40 -35 -55 -70z" />
    <glyph glyph-name="quoteright" unicode="&#x2019;" horiz-adv-x="242" 
d="M111 555v5q-30 4 -50 24.5t-20 50.5t23.5 52.5t56.5 22.5q34 0 57 -25t23 -65q0 -35 -12.5 -66.5t-30 -51.5t-35 -34.5t-29.5 -21.5l-13 -6l-25 45q40 35 55 70z" />
    <glyph glyph-name="quotesinglbase" unicode="&#x201a;" horiz-adv-x="242" 
d="M111 -15v5q-30 4 -50 24.5t-20 50.5t23.5 52.5t56.5 22.5q34 0 57 -25t23 -65q0 -35 -12.5 -66.5t-30 -51.5t-35 -34.5t-29.5 -21.5l-13 -6l-25 45q40 35 55 70z" />
    <glyph glyph-name="quotedblleft" unicode="&#x201c;" horiz-adv-x="447" 
d="M138 595v-5q30 -4 50 -24.5t20 -50.5t-23.5 -52.5t-56.5 -22.5q-34 0 -57 25t-23 65q0 35 12.5 66.5t30 51.5t35 34.5t30.5 21.5l12 6l25 -45q-40 -35 -55 -70zM343 595v-5q30 -4 50 -24.5t20 -50.5t-23.5 -52.5t-56.5 -22.5q-34 0 -57 25t-23 65q0 35 12.5 66.5t30 51.5
t35 34.5t29.5 21.5l13 6l25 -45q-40 -35 -55 -70z" />
    <glyph glyph-name="quotedblright" unicode="&#x201d;" horiz-adv-x="447" 
d="M316 555v5q-30 4 -50 24.5t-20 50.5t23.5 52.5t56.5 22.5q34 0 57 -25t23 -65q0 -35 -12.5 -66.5t-30 -51.5t-35 -34.5t-30.5 -21.5l-12 -6l-25 45q40 35 55 70zM111 555v5q-30 4 -50 24.5t-20 50.5t23.5 52.5t56.5 22.5q34 0 57 -25t23 -65q0 -35 -12.5 -66.5t-30 -51.5
t-35 -34.5t-29.5 -21.5l-13 -6l-25 45q40 35 55 70z" />
    <glyph glyph-name="quotedblbase" unicode="&#x201e;" horiz-adv-x="447" 
d="M111 -15v5q-30 4 -50 24.5t-20 50.5t23.5 52.5t56.5 22.5q34 0 57 -25t23 -65q0 -35 -12.5 -66.5t-30 -51.5t-35 -34.5t-29.5 -21.5l-13 -6l-25 45q40 35 55 70zM316 -15v5q-30 4 -50 24.5t-20 50.5t23.5 52.5t56.5 22.5q34 0 57 -25t23 -65q0 -35 -12.5 -66.5t-30 -51
t-35 -34.5t-30.5 -22l-12 -6l-25 45q40 35 55 70z" />
    <glyph glyph-name="dagger" unicode="&#x2020;" horiz-adv-x="617" 
d="M581 460v-120h-205v-520h-135v520h-205v120h205v240h135v-240h205z" />
    <glyph glyph-name="daggerdbl" unicode="&#x2021;" horiz-adv-x="635" 
d="M590 140v-120h-205v-200h-135v200h-205v120h205v240h-205v120h205v200h135v-200h205v-120h-205v-240h205z" />
    <glyph glyph-name="bullet" unicode="&#x2022;" horiz-adv-x="400" 
d="M90 300q0 45 31 75t79 30t79 -30t31 -75t-31 -75t-79 -30t-79 30t-31 75z" />
    <glyph glyph-name="ellipsis" unicode="&#x2026;" horiz-adv-x="782" 
d="M41 65q0 30 23.5 52.5t56.5 22.5t56.5 -22.5t23.5 -52.5t-23.5 -52.5t-56.5 -22.5t-56.5 22.5t-23.5 52.5zM311 65q0 30 23.5 52.5t56.5 22.5t56.5 -22.5t23.5 -52.5t-23.5 -52.5t-56.5 -22.5t-56.5 22.5t-23.5 52.5zM581 65q0 30 23.5 52.5t56.5 22.5t56.5 -22.5
t23.5 -52.5t-23.5 -52.5t-56.5 -22.5t-56.5 22.5t-23.5 52.5z" />
    <glyph glyph-name="perthousand" unicode="&#x2030;" horiz-adv-x="1236" 
d="M583 700h145l-460 -700h-145zM128 550q0 -37 19.5 -58.5t50.5 -21.5t50.5 21.5t19.5 58.5t-19.5 58.5t-50.5 21.5t-50.5 -21.5t-19.5 -58.5zM378 550q0 -72 -51 -121t-129 -49t-129 49t-51 121t51 121t129 49t129 -49t51 -121zM588 150q0 -37 19.5 -58.5t50.5 -21.5
t50.5 21.5t19.5 58.5t-19.5 58.5t-50.5 21.5t-50.5 -21.5t-19.5 -58.5zM838 150q0 -72 -51 -121t-129 -49t-129 49t-51 121t51 121t129 49t129 -49t51 -121zM968 150q0 -37 19.5 -58.5t50.5 -21.5t50.5 21.5t19.5 58.5t-19.5 58.5t-50.5 21.5t-50.5 -21.5t-19.5 -58.5z
M1218 150q0 -72 -51 -121t-129 -49t-129 49t-51 121t51 121t129 49t129 -49t51 -121z" />
    <glyph glyph-name="guilsinglleft" unicode="&#x2039;" horiz-adv-x="412" 
d="M41 255l245 265l85 -85l-165 -175v-10l165 -175l-85 -85z" />
    <glyph glyph-name="guilsinglright" unicode="&#x203a;" horiz-adv-x="412" 
d="M126 520l245 -265l-245 -265l-85 85l165 175v10l-165 175z" />
    <glyph glyph-name="Euro" unicode="&#x20ac;" horiz-adv-x="750" 
d="M478 720q64 0 123 -17.5t85 -34.5l27 -18l-60 -95q-8 5 -22.5 12.5t-58 20t-84.5 12.5q-71 0 -129 -34.5t-89 -95.5h283v-95h-310v-50h310v-95h-283q31 -61 89 -95.5t129 -34.5q44 0 88 14t66 28l21 13l60 -95l-11 -8.5t-31.5 -19.5t-51.5 -24.5t-68 -19t-83 -8.5
q-134 0 -230.5 67.5t-132.5 182.5h-97v95h80v50h-80v95h97q36 114 132.5 182t230.5 68z" />
    <glyph glyph-name="uni20BD" unicode="&#x20bd;" horiz-adv-x="713" 
d="M27 220h85v40h-85v115h85v325h290q131 0 203 -61.5t72 -158.5t-72 -158.5t-203 -61.5h-150v-40h317v-115h-317v-105h-140v105h-85v115zM532 480q0 43 -36 74t-94 31h-150v-210h150q58 0 94 31t36 74z" />
    <glyph glyph-name="afii61352" unicode="&#x2116;" horiz-adv-x="1188" 
d="M1141 310v-110h-330v110h330zM576 225h5v475h140v-700h-150l-345 475h-5v-475h-140v700h150zM1156 550q0 -72 -51 -121t-129 -49t-129 49t-51 121t51 121t129 49t129 -49t51 -121zM1046 550q0 37 -19.5 58.5t-50.5 21.5t-50.5 -21.5t-19.5 -58.5t19.5 -58.5t50.5 -21.5
t50.5 21.5t19.5 58.5z" />
    <glyph glyph-name="trademark" unicode="&#x2122;" horiz-adv-x="919" 
d="M632 515l87 185h115l40 -340h-105l-20 195h-5l-75 -155h-80l-75 155h-5l-20 -195h-105l40 340h115l87 -185h6zM9 700h350v-90h-120v-250h-110v250h-120v90z" />
    </font>
</defs>
</svg>
